<svg xmlns="http://www.w3.org/2000/svg" id="Isolation_Mode" viewBox="0 0 145.4 109.4"><defs><style>.cls-1{fill:#868686}</style></defs><path d="M1 100.2C1 95 4.5 91 9.7 91c3.2 0 5.1 1.3 6.4 3l-1.8 1.7a5.2 5.2 0 0 0-4.4-2.3c-3.8 0-6 2.9-6 6.8s2.3 6.7 6 6.7c1.8 0 3.3-.7 4.4-2.2l1.8 1.6a7.5 7.5 0 0 1-6.4 3c-5.2 0-8.7-4-8.7-9.1ZM30 109v-2.5a8.6 8.6 0 0 1-6.3 2.9c-3.6 0-5.6-1.8-5.6-5.6V91.5h2.7V103c0 3 1.6 4 4 4 2 0 4.1-1.3 5.1-2.7V91.5h2.7v17.4H30ZM36.3 109V91.3H39v2.9a7.4 7.4 0 0 1 5.8-3.2v2.8a5 5 0 0 0-1-.1c-1.8 0-4 1.3-4.8 2.7V109h-2.7Z" class="cls-1"/><path d="M47 105.3V93.8h-3v-2.3h3v-4.8h2.6v4.7h3.6v2.4h-3.6v10.9c0 1.3.6 2.2 1.8 2.2.8 0 1.5-.3 1.9-.7l.8 2c-.7.7-1.7 1.2-3.3 1.2-2.6 0-3.9-1.5-3.9-4.1ZM67.9 109v-2.7a7.4 7.4 0 0 1-6 3c-4.5 0-7.7-3.4-7.7-9.1S57.4 91 62 91c2.3 0 4.5 1.2 5.8 3v-2.6h2.8V109h-2.7Zm0-4.8v-8c-1-1.5-3.1-2.8-5.3-2.8-3.5 0-5.6 3-5.6 6.8s2.1 6.7 5.6 6.7c2.2 0 4.3-1.2 5.3-2.7ZM95.6 109V98.2c0-1.4-.7-2.4-2.4-2.4a4 4 0 0 0-3.1 1.7V109h-5.6V98.3c0-1.4-.6-2.4-2.3-2.4-1.5 0-2.5 1-3.1 1.7V109h-5.6V91.4h5.6v2.2c.8-1 3-2.6 5.7-2.6 2.5 0 4.3 1 5 3.1 1-1.5 3.3-3.1 6-3.1 3.3 0 5.3 1.7 5.3 5.3v12.6h-5.5ZM115.1 109v-2.1a6.7 6.7 0 0 1-5.1 2.5c-4.4 0-7.8-3.3-7.8-9.2s3.4-9.2 7.8-9.2c1.9 0 3.7.8 5.1 2.5v-2h5.6v17.4H115Zm0-6.2v-5.3c-.7-1-2.1-1.5-3.3-1.5-2.2 0-3.9 1.6-3.9 4.2s1.7 4.2 3.9 4.2c1.2 0 2.6-.6 3.3-1.6ZM122.5 86.7c0-1.8 1.5-3.2 3.2-3.2s3.2 1.4 3.2 3.2a3.2 3.2 0 1 1-6.4 0Zm.4 22.2V91.4h5.6V109H123ZM129.3 106.7l2.3-3.8c1.3 1.1 4 2.3 6.1 2.3 1.7 0 2.4-.6 2.4-1.4s-1.3-1-3-1.3c-3-.5-7.2-1.2-7.2-5.7 0-3.1 2.7-5.8 7.5-5.8 3 0 5.5 1 7.3 2.3l-2.1 3.7c-1-1-3-1.9-5.1-1.9-1.3 0-2.2.6-2.2 1.2 0 .8.9 1 2.7 1.3 3 .5 7.4 1.2 7.4 6 0 3.3-3 5.8-8 5.8a13 13 0 0 1-8.1-2.7ZM110.4 17.5h-7.3v16.9H86.3v7.3h16.8v16.8h7.3V41.7h16.8v-7.3h-16.8V17.5z" class="cls-1"/><path d="M133.6 11.1a38 38 0 0 0-44.4-6.8 37.7 37.7 0 0 1-33.7 0A37.9 37.9 0 0 0 0 38a37.9 37.9 0 0 0 55.5 33.8c10.6-5.3 23.1-5.3 33.7 0a37.8 37.8 0 0 0 44.4-7 37.9 37.9 0 0 0 0-53.7Zm-5.2 48.6a30.6 30.6 0 0 1-37.2 4.8 37.7 37.7 0 0 0-37.6 0 30.6 30.6 0 0 1-37.3-4.8A30.6 30.6 0 0 1 38 7.3c5.7 0 11 1.6 15.6 4.2 11.6 6.7 26 6.7 37.6 0a30.6 30.6 0 0 1 37.2 4.8 30.6 30.6 0 0 1 0 43.4Z" class="cls-1"/><path d="M38 23.4c4 0 7.7 1.6 10.3 4.3l5.2-5.2a21.9 21.9 0 0 0-31 0 21.8 21.8 0 0 0 0 31 21.9 21.9 0 0 0 31 0l-5.2-5.2a14.6 14.6 0 0 1-25-10.3A14.6 14.6 0 0 1 38 23.4Z" class="cls-1"/></svg>